<?xml version="1.0" encoding="UTF-8" standalone="no"?>
<!DOCTYPE svg PUBLIC "-//W3C//DTD SVG 1.1//EN"
 "http://www.w3.org/Graphics/SVG/1.1/DTD/svg11.dtd">
<!-- Generated by graphviz version 2.43.0 (0)
 -->
<!-- Title: PatchCourtLayers Pages: 1 -->
<svg width="1022pt" height="315pt"
 viewBox="0.00 0.00 1022.24 315.00" xmlns="http://www.w3.org/2000/svg" xmlns:xlink="http://www.w3.org/1999/xlink">
<g id="graph0" class="graph" transform="scale(1 1) rotate(0) translate(4 311)">
<title>PatchCourtLayers</title>
<polygon fill="white" stroke="transparent" points="-4,4 -4,-311 1018.24,-311 1018.24,4 -4,4"/>
<!-- application -->
<g id="node1" class="node">
<title>application</title>
<ellipse fill="none" stroke="black" cx="227.33" cy="-141" rx="61.99" ry="18"/>
<text text-anchor="middle" x="227.33" y="-137.3" font-family="Times,serif" font-size="14.00">application</text>
</g>
<!-- cameras -->
<g id="node2" class="node">
<title>cameras</title>
<ellipse fill="none" stroke="black" cx="553.31" cy="-243" rx="50.09" ry="18"/>
<text text-anchor="middle" x="553.31" y="-239.3" font-family="Times,serif" font-size="14.00">cameras</text>
</g>
<!-- application&#45;&gt;cameras -->
<g id="edge1" class="edge">
<title>application&#45;&gt;cameras</title>
<path fill="none" stroke="black" stroke-width="3" d="M253.22,-157.46C274.25,-170.69 305.57,-188.85 335.08,-200 394.77,-222.56 412.56,-219.2 475.27,-231 482.06,-232.28 489.21,-233.52 496.3,-234.7"/>
<polygon fill="black" stroke="black" stroke-width="3" points="496.17,-238.22 506.6,-236.37 497.29,-231.31 496.17,-238.22"/>
<text text-anchor="middle" x="396.17" y="-230.8" font-family="Times,serif" font-size="14.00">6</text>
</g>
<!-- controllers -->
<g id="node3" class="node">
<title>controllers</title>
<ellipse fill="none" stroke="black" cx="396.17" cy="-173" rx="61.19" ry="18"/>
<text text-anchor="middle" x="396.17" y="-169.3" font-family="Times,serif" font-size="14.00">controllers</text>
</g>
<!-- application&#45;&gt;controllers -->
<g id="edge2" class="edge">
<title>application&#45;&gt;controllers</title>
<path fill="none" stroke="black" d="M279.3,-150.77C296.76,-154.12 316.48,-157.91 334.62,-161.39"/>
<polygon fill="black" stroke="black" points="334.04,-164.84 344.52,-163.28 335.36,-157.96 334.04,-164.84"/>
<text text-anchor="middle" x="312.08" y="-160.8" font-family="Times,serif" font-size="14.00">1</text>
</g>
<!-- server -->
<g id="node7" class="node">
<title>server</title>
<ellipse fill="none" stroke="black" cx="553.31" cy="-93" rx="40.09" ry="18"/>
<text text-anchor="middle" x="553.31" y="-89.3" font-family="Times,serif" font-size="14.00">server</text>
</g>
<!-- application&#45;&gt;server -->
<g id="edge3" class="edge">
<title>application&#45;&gt;server</title>
<path fill="none" stroke="black" d="M282.93,-132.91C345.02,-123.71 445.43,-108.84 504.54,-100.08"/>
<polygon fill="black" stroke="black" points="505.34,-103.5 514.72,-98.57 504.32,-96.57 505.34,-103.5"/>
<text text-anchor="middle" x="396.17" y="-128.8" font-family="Times,serif" font-size="14.00">1</text>
</g>
<!-- shared -->
<g id="node9" class="node">
<title>shared</title>
<ellipse fill="none" stroke="black" cx="971.99" cy="-135" rx="42.49" ry="18"/>
<text text-anchor="middle" x="971.99" y="-131.3" font-family="Times,serif" font-size="14.00">shared</text>
</g>
<!-- application&#45;&gt;shared -->
<g id="edge4" class="edge">
<title>application&#45;&gt;shared</title>
<path fill="none" stroke="black" stroke-width="2" d="M238.24,-123.14C260.75,-85.2 319.7,0 395.17,0 395.17,0 395.17,0 839.9,0 899.38,0 940.56,-68.29 959.39,-107.73"/>
<polygon fill="black" stroke="black" stroke-width="2" points="956.33,-109.45 963.69,-117.07 962.69,-106.53 956.33,-109.45"/>
<text text-anchor="middle" x="630.86" y="-3.8" font-family="Times,serif" font-size="14.00">2</text>
</g>
<!-- domain -->
<g id="node5" class="node">
<title>domain</title>
<ellipse fill="none" stroke="black" cx="703.2" cy="-145" rx="44.69" ry="18"/>
<text text-anchor="middle" x="703.2" y="-141.3" font-family="Times,serif" font-size="14.00">domain</text>
</g>
<!-- cameras&#45;&gt;domain -->
<g id="edge5" class="edge">
<title>cameras&#45;&gt;domain</title>
<path fill="none" stroke="black" stroke-width="5" d="M593.35,-232.13C608.75,-226.82 626.12,-219.5 640.36,-210 656.56,-199.19 671.69,-183.43 682.93,-170.14"/>
<polygon fill="black" stroke="black" stroke-width="5" points="686.45,-172.75 689.4,-162.25 679.68,-167.21 686.45,-172.75"/>
<text text-anchor="middle" x="630.86" y="-222.8" font-family="Times,serif" font-size="14.00">63</text>
</g>
<!-- cameras&#45;&gt;shared -->
<g id="edge6" class="edge">
<title>cameras&#45;&gt;shared</title>
<path fill="none" stroke="black" stroke-width="3" d="M601.66,-247.87C667.84,-252.68 790.37,-254.24 883.74,-213 910.5,-201.18 934.75,-177.99 950.85,-159.96"/>
<polygon fill="black" stroke="black" stroke-width="3" points="953.76,-161.94 957.66,-152.09 948.47,-157.36 953.76,-161.94"/>
<text text-anchor="middle" x="771.05" y="-246.8" font-family="Times,serif" font-size="14.00">6</text>
</g>
<!-- controllers&#45;&gt;cameras -->
<g id="edge7" class="edge">
<title>controllers&#45;&gt;cameras</title>
<path fill="none" stroke="black" stroke-width="2" d="M430.45,-188.02C454.38,-198.81 486.75,-213.42 512.11,-224.86"/>
<polygon fill="black" stroke="black" stroke-width="2" points="510.91,-228.16 521.46,-229.08 513.78,-221.78 510.91,-228.16"/>
<text text-anchor="middle" x="480.27" y="-215.8" font-family="Times,serif" font-size="14.00">2</text>
</g>
<!-- controllers&#45;&gt;domain -->
<g id="edge8" class="edge">
<title>controllers&#45;&gt;domain</title>
<path fill="none" stroke="black" stroke-width="4" d="M454.91,-167.7C510.72,-162.58 594.6,-154.88 648.88,-149.89"/>
<polygon fill="black" stroke="black" stroke-width="4" points="649.35,-153.37 658.99,-148.97 648.71,-146.4 649.35,-153.37"/>
<text text-anchor="middle" x="553.31" y="-166.8" font-family="Times,serif" font-size="14.00">15</text>
</g>
<!-- controllers&#45;&gt;server -->
<g id="edge9" class="edge">
<title>controllers&#45;&gt;server</title>
<path fill="none" stroke="black" d="M419.95,-156.22C435.12,-145.53 455.77,-131.89 475.27,-122 486.42,-116.34 498.95,-111.17 510.61,-106.8"/>
<polygon fill="black" stroke="black" points="511.95,-110.04 520.16,-103.33 509.56,-103.46 511.95,-110.04"/>
<text text-anchor="middle" x="480.27" y="-125.8" font-family="Times,serif" font-size="14.00">1</text>
</g>
<!-- session -->
<g id="node8" class="node">
<title>session</title>
<ellipse fill="none" stroke="black" cx="838.9" cy="-186" rx="44.69" ry="18"/>
<text text-anchor="middle" x="838.9" y="-182.3" font-family="Times,serif" font-size="14.00">session</text>
</g>
<!-- controllers&#45;&gt;session -->
<g id="edge10" class="edge">
<title>controllers&#45;&gt;session</title>
<path fill="none" stroke="black" d="M455.15,-177.72C461.93,-178.19 468.75,-178.63 475.27,-179 487.7,-179.7 490.82,-179.66 503.27,-180 602.23,-182.71 717.7,-184.47 783.86,-185.34"/>
<polygon fill="black" stroke="black" points="784,-188.85 794.04,-185.48 784.09,-181.85 784,-188.85"/>
<text text-anchor="middle" x="630.86" y="-186.8" font-family="Times,serif" font-size="14.00">1</text>
</g>
<!-- controllers&#45;&gt;shared -->
<g id="edge11" class="edge">
<title>controllers&#45;&gt;shared</title>
<path fill="none" stroke="black" stroke-width="3" d="M441.06,-185.38C446.92,-188.25 452.53,-191.75 457.27,-196 470.29,-207.67 466.14,-216.08 475.27,-231 486.4,-249.2 486.74,-256.5 503.27,-270 521.77,-285.11 528.42,-292 552.31,-292 552.31,-292 552.31,-292 839.9,-292 906.58,-292 945.98,-207.51 962.23,-162.49"/>
<polygon fill="black" stroke="black" stroke-width="3" points="965.55,-163.6 965.53,-153.01 958.94,-161.31 965.55,-163.6"/>
<text text-anchor="middle" x="703.2" y="-295.8" font-family="Times,serif" font-size="14.00">5</text>
</g>
<!-- coroutines -->
<g id="node4" class="node">
<title>coroutines</title>
<ellipse fill="none" stroke="black" cx="59.79" cy="-195" rx="59.59" ry="18"/>
<text text-anchor="middle" x="59.79" y="-191.3" font-family="Times,serif" font-size="14.00">coroutines</text>
</g>
<!-- domain&#45;&gt;session -->
<g id="edge12" class="edge">
<title>domain&#45;&gt;session</title>
<path fill="none" stroke="black" stroke-width="2" d="M747.36,-141.71C756.96,-142.05 766.98,-143.25 776.05,-146 782.96,-148.09 795.81,-156.12 808.02,-164.45"/>
<polygon fill="black" stroke="black" stroke-width="2" points="806.07,-167.36 816.28,-170.19 810.06,-161.61 806.07,-167.36"/>
<text text-anchor="middle" x="771.05" y="-149.8" font-family="Times,serif" font-size="14.00">2</text>
</g>
<!-- domain&#45;&gt;shared -->
<g id="edge13" class="edge">
<title>domain&#45;&gt;shared</title>
<path fill="none" stroke="black" d="M746.76,-140.44C753.21,-139.87 759.8,-139.36 766.05,-139 818.29,-135.96 878.13,-135.09 919.6,-134.91"/>
<polygon fill="black" stroke="black" points="919.75,-138.4 929.74,-134.87 919.73,-131.41 919.75,-138.4"/>
<text text-anchor="middle" x="838.9" y="-141.8" font-family="Times,serif" font-size="14.00">1</text>
</g>
<!-- entrypoint -->
<g id="node6" class="node">
<title>entrypoint</title>
<ellipse fill="none" stroke="black" cx="59.79" cy="-141" rx="59.59" ry="18"/>
<text text-anchor="middle" x="59.79" y="-137.3" font-family="Times,serif" font-size="14.00">entrypoint</text>
</g>
<!-- entrypoint&#45;&gt;application -->
<g id="edge14" class="edge">
<title>entrypoint&#45;&gt;application</title>
<path fill="none" stroke="black" stroke-width="2" d="M119.62,-141C131.12,-141 143.3,-141 155.15,-141"/>
<polygon fill="black" stroke="black" stroke-width="2" points="155.46,-144.5 165.46,-141 155.46,-137.5 155.46,-144.5"/>
<text text-anchor="middle" x="142.59" y="-144.8" font-family="Times,serif" font-size="14.00">2</text>
</g>
<!-- server&#45;&gt;domain -->
<g id="edge15" class="edge">
<title>server&#45;&gt;domain</title>
<path fill="none" stroke="black" stroke-width="2" d="M586.27,-103.51C602.51,-108.91 622.53,-115.68 640.36,-122 646.82,-124.29 653.63,-126.76 660.28,-129.21"/>
<polygon fill="black" stroke="black" stroke-width="2" points="659.26,-132.56 669.85,-132.75 661.69,-126 659.26,-132.56"/>
<text text-anchor="middle" x="630.86" y="-125.8" font-family="Times,serif" font-size="14.00">3</text>
</g>
<!-- server&#45;&gt;shared -->
<g id="edge16" class="edge">
<title>server&#45;&gt;shared</title>
<path fill="none" stroke="black" d="M593.84,-92.72C655.9,-92.81 779.86,-95.08 883.74,-110 898.95,-112.18 915.23,-116.33 929.56,-120.63"/>
<polygon fill="black" stroke="black" points="928.54,-123.98 939.13,-123.61 930.62,-117.29 928.54,-123.98"/>
<text text-anchor="middle" x="771.05" y="-102.8" font-family="Times,serif" font-size="14.00">1</text>
</g>
<!-- session&#45;&gt;domain -->
<g id="edge17" class="edge">
<title>session&#45;&gt;domain</title>
<path fill="none" stroke="black" stroke-width="3" d="M802.54,-175.16C786.21,-170.15 766.64,-164.15 749.26,-158.82"/>
<polygon fill="black" stroke="black" stroke-width="3" points="749.92,-155.36 739.33,-155.77 747.87,-162.05 749.92,-155.36"/>
<text text-anchor="middle" x="771.05" y="-169.8" font-family="Times,serif" font-size="14.00">6</text>
</g>
<!-- session&#45;&gt;shared -->
<g id="edge18" class="edge">
<title>session&#45;&gt;shared</title>
<path fill="none" stroke="black" stroke-width="2" d="M871.63,-173.65C889.31,-166.78 911.51,-158.14 930.44,-150.77"/>
<polygon fill="black" stroke="black" stroke-width="2" points="931.95,-153.94 940,-147.06 929.41,-147.42 931.95,-153.94"/>
<text text-anchor="middle" x="906.74" y="-163.8" font-family="Times,serif" font-size="14.00">3</text>
</g>
<!-- shared&#45;&gt;domain -->
<g id="edge19" class="edge">
<title>shared&#45;&gt;domain</title>
<path fill="none" stroke="black" stroke-width="4" d="M935.16,-125.9C919.49,-122.36 900.82,-118.74 883.74,-117 844.09,-112.95 833.46,-111 794.05,-117 777.89,-119.46 760.63,-124.28 745.6,-129.23"/>
<polygon fill="black" stroke="black" stroke-width="4" points="744.42,-125.94 736.09,-132.48 746.68,-132.56 744.42,-125.94"/>
<text text-anchor="middle" x="838.9" y="-120.8" font-family="Times,serif" font-size="14.00">13</text>
</g>
</g>
</svg>
