<?xml version="1.0" encoding="UTF-8" standalone="no"?>
<!DOCTYPE svg PUBLIC "-//W3C//DTD SVG 1.1//EN"
 "http://www.w3.org/Graphics/SVG/1.1/DTD/svg11.dtd">
<!-- Generated by graphviz version 2.43.0 (0)
 -->
<!-- Title: PatchCourtLayers Pages: 1 -->
<svg width="953pt" height="251pt"
 viewBox="0.00 0.00 953.24 251.00" xmlns="http://www.w3.org/2000/svg" xmlns:xlink="http://www.w3.org/1999/xlink">
<g id="graph0" class="graph" transform="scale(1 1) rotate(0) translate(4 247)">
<title>PatchCourtLayers</title>
<polygon fill="white" stroke="transparent" points="-4,4 -4,-247 949.24,-247 949.24,4 -4,4"/>
<!-- application -->
<g id="node1" class="node">
<title>application</title>
<ellipse fill="none" stroke="black" cx="217.33" cy="-171" rx="61.99" ry="18"/>
<text text-anchor="middle" x="217.33" y="-167.3" font-family="Times,serif" font-size="14.00">application</text>
</g>
<!-- cameras -->
<g id="node2" class="node">
<title>cameras</title>
<ellipse fill="none" stroke="black" cx="523.31" cy="-194" rx="50.09" ry="18"/>
<text text-anchor="middle" x="523.31" y="-190.3" font-family="Times,serif" font-size="14.00">cameras</text>
</g>
<!-- application&#45;&gt;cameras -->
<g id="edge1" class="edge">
<title>application&#45;&gt;cameras</title>
<path fill="none" stroke="black" d="M277.3,-175.46C331.16,-179.54 410.32,-185.53 463.97,-189.59"/>
<polygon fill="black" stroke="black" points="463.78,-193.08 474.01,-190.35 464.31,-186.1 463.78,-193.08"/>
</g>
<!-- controllers -->
<g id="node3" class="node">
<title>controllers</title>
<ellipse fill="none" stroke="black" cx="376.17" cy="-129" rx="61.19" ry="18"/>
<text text-anchor="middle" x="376.17" y="-125.3" font-family="Times,serif" font-size="14.00">controllers</text>
</g>
<!-- application&#45;&gt;controllers -->
<g id="edge2" class="edge">
<title>application&#45;&gt;controllers</title>
<path fill="none" stroke="black" d="M263.28,-158.96C281.16,-154.18 301.89,-148.62 320.62,-143.61"/>
<polygon fill="black" stroke="black" points="321.74,-146.93 330.49,-140.96 319.93,-140.17 321.74,-146.93"/>
</g>
<!-- server -->
<g id="node7" class="node">
<title>server</title>
<ellipse fill="none" stroke="black" cx="523.31" cy="-18" rx="40.09" ry="18"/>
<text text-anchor="middle" x="523.31" y="-14.3" font-family="Times,serif" font-size="14.00">server</text>
</g>
<!-- application&#45;&gt;server -->
<g id="edge3" class="edge">
<title>application&#45;&gt;server</title>
<path fill="none" stroke="black" d="M239.28,-153.86C258.26,-138.88 287.41,-117.2 315.08,-102 369.85,-71.91 437.67,-46.45 480.48,-31.7"/>
<polygon fill="black" stroke="black" points="481.68,-34.99 490.01,-28.44 479.42,-28.36 481.68,-34.99"/>
</g>
<!-- shared -->
<g id="node9" class="node">
<title>shared</title>
<ellipse fill="none" stroke="black" cx="902.99" cy="-110" rx="42.49" ry="18"/>
<text text-anchor="middle" x="902.99" y="-106.3" font-family="Times,serif" font-size="14.00">shared</text>
</g>
<!-- application&#45;&gt;shared -->
<g id="edge4" class="edge">
<title>application&#45;&gt;shared</title>
<path fill="none" stroke="black" d="M255.63,-185.13C312.35,-205.32 424.09,-240 522.31,-240 522.31,-240 522.31,-240 655.2,-240 733.05,-240 758.23,-236.45 824.74,-196 849.72,-180.81 871.29,-155.05 885.24,-135.68"/>
<polygon fill="black" stroke="black" points="888.24,-137.49 891.09,-127.29 882.5,-133.49 888.24,-137.49"/>
</g>
<!-- domain -->
<g id="node5" class="node">
<title>domain</title>
<ellipse fill="none" stroke="black" cx="654.2" cy="-110" rx="44.69" ry="18"/>
<text text-anchor="middle" x="654.2" y="-106.3" font-family="Times,serif" font-size="14.00">domain</text>
</g>
<!-- cameras&#45;&gt;domain -->
<g id="edge5" class="edge">
<title>cameras&#45;&gt;domain</title>
<path fill="none" stroke="black" d="M548.56,-178.2C569.16,-164.77 598.88,-145.4 621.39,-130.73"/>
<polygon fill="black" stroke="black" points="623.47,-133.56 629.94,-125.16 619.65,-127.69 623.47,-133.56"/>
</g>
<!-- cameras&#45;&gt;shared -->
<g id="edge6" class="edge">
<title>cameras&#45;&gt;shared</title>
<path fill="none" stroke="black" d="M571.73,-198.68C632.57,-202.85 740.33,-203.98 824.74,-171 845.42,-162.92 865.01,-147.33 879.29,-133.93"/>
<polygon fill="black" stroke="black" points="881.92,-136.26 886.65,-126.77 877.04,-131.24 881.92,-136.26"/>
</g>
<!-- controllers&#45;&gt;cameras -->
<g id="edge7" class="edge">
<title>controllers&#45;&gt;cameras</title>
<path fill="none" stroke="black" d="M410.47,-143.91C431.71,-153.42 459.37,-165.81 481.86,-175.89"/>
<polygon fill="black" stroke="black" points="480.6,-179.15 491.16,-180.05 483.46,-172.76 480.6,-179.15"/>
</g>
<!-- controllers&#45;&gt;domain -->
<g id="edge8" class="edge">
<title>controllers&#45;&gt;domain</title>
<path fill="none" stroke="black" d="M436.05,-124.95C484.58,-121.61 552.83,-116.91 599.8,-113.68"/>
<polygon fill="black" stroke="black" points="600.04,-117.17 609.78,-112.99 599.56,-110.18 600.04,-117.17"/>
</g>
<!-- controllers&#45;&gt;server -->
<g id="edge9" class="edge">
<title>controllers&#45;&gt;server</title>
<path fill="none" stroke="black" d="M396.54,-112.01C415.6,-95.55 445.76,-70.19 473.27,-50 478.77,-45.96 484.77,-41.83 490.62,-37.95"/>
<polygon fill="black" stroke="black" points="492.55,-40.87 499,-32.47 488.72,-35.01 492.55,-40.87"/>
</g>
<!-- session -->
<g id="node8" class="node">
<title>session</title>
<ellipse fill="none" stroke="black" cx="779.9" cy="-55" rx="44.69" ry="18"/>
<text text-anchor="middle" x="779.9" y="-51.3" font-family="Times,serif" font-size="14.00">session</text>
</g>
<!-- controllers&#45;&gt;session -->
<g id="edge10" class="edge">
<title>controllers&#45;&gt;session</title>
<path fill="none" stroke="black" d="M426.46,-118.76C473.4,-109.12 546.08,-94.49 609.36,-83 648.99,-75.8 693.99,-68.41 727.66,-63.03"/>
<polygon fill="black" stroke="black" points="728.4,-66.45 737.72,-61.42 727.3,-59.54 728.4,-66.45"/>
</g>
<!-- controllers&#45;&gt;shared -->
<g id="edge11" class="edge">
<title>controllers&#45;&gt;shared</title>
<path fill="none" stroke="black" d="M436.89,-131.6C448.93,-132.09 461.5,-132.58 473.27,-133 629.38,-138.54 670.54,-157.98 824.74,-133 836.49,-131.1 848.97,-127.92 860.38,-124.52"/>
<polygon fill="black" stroke="black" points="861.58,-127.81 870.1,-121.51 859.51,-121.13 861.58,-127.81"/>
</g>
<!-- coroutines -->
<g id="node4" class="node">
<title>coroutines</title>
<ellipse fill="none" stroke="black" cx="59.79" cy="-225" rx="59.59" ry="18"/>
<text text-anchor="middle" x="59.79" y="-221.3" font-family="Times,serif" font-size="14.00">coroutines</text>
</g>
<!-- domain&#45;&gt;session -->
<g id="edge12" class="edge">
<title>domain&#45;&gt;session</title>
<path fill="none" stroke="black" d="M677.89,-94.55C693.28,-86.43 714.18,-76.74 732.97,-68.88"/>
<polygon fill="black" stroke="black" points="734.35,-72.09 742.27,-65.06 731.69,-65.62 734.35,-72.09"/>
</g>
<!-- domain&#45;&gt;shared -->
<g id="edge13" class="edge">
<title>domain&#45;&gt;shared</title>
<path fill="none" stroke="black" d="M697.35,-104.77C740.26,-102.85 806.77,-102.75 852.25,-104.46"/>
<polygon fill="black" stroke="black" points="852.33,-107.97 862.47,-104.89 852.62,-100.97 852.33,-107.97"/>
</g>
<!-- entrypoint -->
<g id="node6" class="node">
<title>entrypoint</title>
<ellipse fill="none" stroke="black" cx="59.79" cy="-171" rx="59.59" ry="18"/>
<text text-anchor="middle" x="59.79" y="-167.3" font-family="Times,serif" font-size="14.00">entrypoint</text>
</g>
<!-- entrypoint&#45;&gt;application -->
<g id="edge14" class="edge">
<title>entrypoint&#45;&gt;application</title>
<path fill="none" stroke="black" d="M119.6,-171C128.01,-171 136.73,-171 145.34,-171"/>
<polygon fill="black" stroke="black" points="145.38,-174.5 155.38,-171 145.38,-167.5 145.38,-174.5"/>
</g>
<!-- server&#45;&gt;domain -->
<g id="edge15" class="edge">
<title>server&#45;&gt;domain</title>
<path fill="none" stroke="black" d="M545.6,-33.19C566.74,-48.28 599.35,-71.56 623.13,-88.54"/>
<polygon fill="black" stroke="black" points="621.29,-91.52 631.46,-94.48 625.35,-85.82 621.29,-91.52"/>
</g>
<!-- server&#45;&gt;shared -->
<g id="edge16" class="edge">
<title>server&#45;&gt;shared</title>
<path fill="none" stroke="black" d="M560.52,-10.71C619.04,-0.73 736.76,11.74 824.74,-28 850.71,-39.73 872.14,-64.67 885.79,-83.98"/>
<polygon fill="black" stroke="black" points="882.98,-86.08 891.5,-92.39 888.77,-82.15 882.98,-86.08"/>
</g>
<!-- session&#45;&gt;domain -->
<g id="edge17" class="edge">
<title>session&#45;&gt;domain</title>
<path fill="none" stroke="black" d="M756.31,-70.4C740.87,-78.55 719.86,-88.29 700.99,-96.19"/>
<polygon fill="black" stroke="black" points="699.57,-92.98 691.65,-100.01 702.23,-99.46 699.57,-92.98"/>
</g>
<!-- session&#45;&gt;shared -->
<g id="edge18" class="edge">
<title>session&#45;&gt;shared</title>
<path fill="none" stroke="black" d="M810.21,-68.31C826.39,-75.66 846.67,-84.88 864.05,-92.77"/>
<polygon fill="black" stroke="black" points="862.81,-96.05 873.36,-97 865.71,-89.68 862.81,-96.05"/>
</g>
<!-- shared&#45;&gt;domain -->
<g id="edge19" class="edge">
<title>shared&#45;&gt;domain</title>
<path fill="none" stroke="black" d="M862.47,-115.11C820.46,-117.11 753.82,-117.28 707.49,-115.63"/>
<polygon fill="black" stroke="black" points="707.48,-112.13 697.35,-115.23 707.2,-119.13 707.48,-112.13"/>
</g>
</g>
</svg>
