<?xml version="1.0" encoding="UTF-8" standalone="no"?>
<!DOCTYPE svg PUBLIC "-//W3C//DTD SVG 1.1//EN"
 "http://www.w3.org/Graphics/SVG/1.1/DTD/svg11.dtd">
<!-- Generated by graphviz version 2.43.0 (0)
 -->
<!-- Title: PatchCourtGoDeps Pages: 1 -->
<svg width="1281pt" height="679pt"
 viewBox="0.00 0.00 1281.00 679.05" xmlns="http://www.w3.org/2000/svg" xmlns:xlink="http://www.w3.org/1999/xlink">
<g id="graph0" class="graph" transform="scale(1 1) rotate(0) translate(4 675.05)">
<title>PatchCourtGoDeps</title>
<polygon fill="white" stroke="transparent" points="-4,4 -4,-675.05 1277,-675.05 1277,4 -4,4"/>
<!-- cmd/patchcourt -->
<g id="node1" class="node">
<title>cmd/patchcourt</title>
<polygon fill="none" stroke="black" points="96,-248.05 0,-248.05 0,-212.05 96,-212.05 96,-248.05"/>
<text text-anchor="middle" x="48" y="-227.55" font-family="Times,serif" font-size="10.00">cmd/patchcourt</text>
</g>
<!-- internal/cli -->
<g id="node2" class="node">
<title>internal/cli</title>
<polygon fill="none" stroke="black" points="203,-248.05 132,-248.05 132,-212.05 203,-212.05 203,-248.05"/>
<text text-anchor="middle" x="167.5" y="-227.55" font-family="Times,serif" font-size="10.00">internal/cli</text>
</g>
<!-- cmd/patchcourt&#45;&gt;internal/cli -->
<g id="edge1" class="edge">
<title>cmd/patchcourt&#45;&gt;internal/cli</title>
<path fill="none" stroke="black" d="M96.11,-230.05C104.46,-230.05 113.14,-230.05 121.43,-230.05"/>
<polygon fill="black" stroke="black" points="121.68,-233.55 131.68,-230.05 121.68,-226.55 121.68,-233.55"/>
</g>
<!-- internal/platform/logx -->
<g id="node15" class="node">
<title>internal/platform/logx</title>
<polygon fill="none" stroke="black" points="669,-611.05 541,-611.05 541,-575.05 669,-575.05 669,-611.05"/>
<text text-anchor="middle" x="605" y="-590.55" font-family="Times,serif" font-size="10.00">internal/platform/logx</text>
</g>
<!-- internal/cli&#45;&gt;internal/platform/logx -->
<g id="edge41" class="edge">
<title>internal/cli&#45;&gt;internal/platform/logx</title>
<path fill="none" stroke="black" d="M175.64,-248.39C195.84,-297.92 258.22,-435.61 354,-509.05 405.8,-548.76 477.44,-570.29 530.75,-581.58"/>
<polygon fill="black" stroke="black" points="530.33,-585.06 540.82,-583.63 531.73,-578.2 530.33,-585.06"/>
</g>
<!-- internal/app -->
<g id="node18" class="node">
<title>internal/app</title>
<polygon fill="none" stroke="black" points="318,-248.05 239,-248.05 239,-212.05 318,-212.05 318,-248.05"/>
<text text-anchor="middle" x="278.5" y="-227.55" font-family="Times,serif" font-size="10.00">internal/app</text>
</g>
<!-- internal/cli&#45;&gt;internal/app -->
<g id="edge39" class="edge">
<title>internal/cli&#45;&gt;internal/app</title>
<path fill="none" stroke="black" d="M203.29,-230.05C211.35,-230.05 220.08,-230.05 228.62,-230.05"/>
<polygon fill="black" stroke="black" points="228.88,-233.55 238.88,-230.05 228.88,-226.55 228.88,-233.55"/>
</g>
<!-- internal/output/report -->
<g id="node19" class="node">
<title>internal/output/report</title>
<polygon fill="none" stroke="black" points="487.5,-145.05 359.5,-145.05 359.5,-109.05 487.5,-109.05 487.5,-145.05"/>
<text text-anchor="middle" x="423.5" y="-124.55" font-family="Times,serif" font-size="10.00">internal/output/report</text>
</g>
<!-- internal/cli&#45;&gt;internal/output/report -->
<g id="edge40" class="edge">
<title>internal/cli&#45;&gt;internal/output/report</title>
<path fill="none" stroke="black" d="M203.02,-216.05C245.58,-198.79 318.41,-169.26 368.42,-148.98"/>
<polygon fill="black" stroke="black" points="369.84,-152.18 377.79,-145.18 367.21,-145.69 369.84,-152.18"/>
</g>
<!-- internal/analysis/compilecmds -->
<g id="node3" class="node">
<title>internal/analysis/compilecmds</title>
<polygon fill="none" stroke="black" points="887,-671.05 717,-671.05 717,-635.05 887,-635.05 887,-671.05"/>
<text text-anchor="middle" x="802" y="-650.55" font-family="Times,serif" font-size="10.00">internal/analysis/compilecmds</text>
</g>
<!-- internal/platform/pathmatch -->
<g id="node4" class="node">
<title>internal/platform/pathmatch</title>
<polygon fill="none" stroke="black" points="1273,-549.05 1112,-549.05 1112,-513.05 1273,-513.05 1273,-549.05"/>
<text text-anchor="middle" x="1192.5" y="-528.55" font-family="Times,serif" font-size="10.00">internal/platform/pathmatch</text>
</g>
<!-- internal/analysis/compilecmds&#45;&gt;internal/platform/pathmatch -->
<g id="edge2" class="edge">
<title>internal/analysis/compilecmds&#45;&gt;internal/platform/pathmatch</title>
<path fill="none" stroke="black" d="M887.14,-654.78C942.66,-653.17 1015.96,-645.68 1076,-621.05 1111.77,-606.37 1145.8,-577.37 1167.53,-556.25"/>
<polygon fill="black" stroke="black" points="1170.06,-558.67 1174.69,-549.14 1165.13,-553.7 1170.06,-558.67"/>
</g>
<!-- internal/analysis/contracts -->
<g id="node5" class="node">
<title>internal/analysis/contracts</title>
<polygon fill="none" stroke="black" points="680,-167.05 530,-167.05 530,-131.05 680,-131.05 680,-167.05"/>
<text text-anchor="middle" x="605" y="-146.55" font-family="Times,serif" font-size="10.00">internal/analysis/contracts</text>
</g>
<!-- internal/model -->
<g id="node6" class="node">
<title>internal/model</title>
<polygon fill="none" stroke="black" points="1238,-254.05 1147,-254.05 1147,-218.05 1238,-218.05 1238,-254.05"/>
<text text-anchor="middle" x="1192.5" y="-233.55" font-family="Times,serif" font-size="10.00">internal/model</text>
</g>
<!-- internal/analysis/contracts&#45;&gt;internal/model -->
<g id="edge3" class="edge">
<title>internal/analysis/contracts&#45;&gt;internal/model</title>
<path fill="none" stroke="black" d="M680.06,-147.42C773.69,-147.05 939.17,-152.05 1076,-186.05 1101.03,-192.27 1127.53,-203.38 1148.83,-213.55"/>
<polygon fill="black" stroke="black" points="1147.4,-216.75 1157.92,-217.99 1150.47,-210.46 1147.4,-216.75"/>
</g>
<!-- internal/analysis/cppusage -->
<g id="node7" class="node">
<title>internal/analysis/cppusage</title>
<polygon fill="none" stroke="black" points="1076,-411.05 923,-411.05 923,-375.05 1076,-375.05 1076,-411.05"/>
<text text-anchor="middle" x="999.5" y="-390.55" font-family="Times,serif" font-size="10.00">internal/analysis/cppusage</text>
</g>
<!-- internal/analysis/cppusage&#45;&gt;internal/model -->
<g id="edge4" class="edge">
<title>internal/analysis/cppusage&#45;&gt;internal/model</title>
<path fill="none" stroke="black" d="M1051.63,-374.89C1060.1,-370.91 1068.55,-366.29 1076,-361.05 1115.43,-333.32 1151.5,-290.17 1172.49,-262.52"/>
<polygon fill="black" stroke="black" points="1175.33,-264.57 1178.51,-254.47 1169.72,-260.38 1175.33,-264.57"/>
</g>
<!-- internal/analysis/depdiff -->
<g id="node8" class="node">
<title>internal/analysis/depdiff</title>
<polygon fill="none" stroke="black" points="675,-75.05 535,-75.05 535,-39.05 675,-39.05 675,-75.05"/>
<text text-anchor="middle" x="605" y="-54.55" font-family="Times,serif" font-size="10.00">internal/analysis/depdiff</text>
</g>
<!-- internal/analysis/depdiff&#45;&gt;internal/model -->
<g id="edge5" class="edge">
<title>internal/analysis/depdiff&#45;&gt;internal/model</title>
<path fill="none" stroke="black" d="M675.28,-45.08C771.34,-32.04 947.67,-21.19 1076,-89.05 1126.09,-115.53 1161.58,-174.26 1179.08,-208.94"/>
<polygon fill="black" stroke="black" points="1176,-210.59 1183.54,-218.03 1182.28,-207.51 1176,-210.59"/>
</g>
<!-- internal/analysis/discovery -->
<g id="node9" class="node">
<title>internal/analysis/discovery</title>
<polygon fill="none" stroke="black" points="681,-389.05 529,-389.05 529,-353.05 681,-353.05 681,-389.05"/>
<text text-anchor="middle" x="605" y="-368.55" font-family="Times,serif" font-size="10.00">internal/analysis/discovery</text>
</g>
<!-- internal/analysis/discovery&#45;&gt;internal/platform/pathmatch -->
<g id="edge9" class="edge">
<title>internal/analysis/discovery&#45;&gt;internal/platform/pathmatch</title>
<path fill="none" stroke="black" d="M635.02,-389.16C657.05,-402.5 688.32,-420.58 717,-434.05 805.61,-475.66 827.38,-491.03 923,-512.05 981.62,-524.93 1049.01,-529.67 1101.6,-531.19"/>
<polygon fill="black" stroke="black" points="1101.83,-534.7 1111.92,-531.45 1102.01,-527.7 1101.83,-534.7"/>
</g>
<!-- internal/analysis/discovery&#45;&gt;internal/model -->
<g id="edge8" class="edge">
<title>internal/analysis/discovery&#45;&gt;internal/model</title>
<path fill="none" stroke="black" d="M665.16,-352.94C756.78,-324.89 922.59,-274.14 923,-274.05 996.18,-257.78 1082.21,-247.04 1136.78,-241.26"/>
<polygon fill="black" stroke="black" points="1137.35,-244.72 1146.93,-240.2 1136.62,-237.75 1137.35,-244.72"/>
</g>
<!-- internal/analysis/project -->
<g id="node10" class="node">
<title>internal/analysis/project</title>
<polygon fill="none" stroke="black" points="871.5,-389.05 732.5,-389.05 732.5,-353.05 871.5,-353.05 871.5,-389.05"/>
<text text-anchor="middle" x="802" y="-368.55" font-family="Times,serif" font-size="10.00">internal/analysis/project</text>
</g>
<!-- internal/analysis/discovery&#45;&gt;internal/analysis/project -->
<g id="edge6" class="edge">
<title>internal/analysis/discovery&#45;&gt;internal/analysis/project</title>
<path fill="none" stroke="black" d="M681.11,-371.05C694.54,-371.05 708.56,-371.05 722.08,-371.05"/>
<polygon fill="black" stroke="black" points="722.31,-374.55 732.31,-371.05 722.31,-367.55 722.31,-374.55"/>
</g>
<!-- internal/analysis/resolver -->
<g id="node11" class="node">
<title>internal/analysis/resolver</title>
<polygon fill="none" stroke="black" points="1072,-503.05 927,-503.05 927,-467.05 1072,-467.05 1072,-503.05"/>
<text text-anchor="middle" x="999.5" y="-482.55" font-family="Times,serif" font-size="10.00">internal/analysis/resolver</text>
</g>
<!-- internal/analysis/discovery&#45;&gt;internal/analysis/resolver -->
<g id="edge7" class="edge">
<title>internal/analysis/discovery&#45;&gt;internal/analysis/resolver</title>
<path fill="none" stroke="black" d="M679.58,-389.12C759.42,-408.77 876.96,-437.83 887,-441.05 907.01,-447.45 928.57,-455.65 947.36,-463.23"/>
<polygon fill="black" stroke="black" points="946.04,-466.47 956.62,-467 948.68,-459.99 946.04,-466.47"/>
</g>
<!-- internal/analysis/project&#45;&gt;internal/platform/pathmatch -->
<g id="edge25" class="edge">
<title>internal/analysis/project&#45;&gt;internal/platform/pathmatch</title>
<path fill="none" stroke="black" d="M870.17,-389.05C875.94,-391.19 881.63,-393.53 887,-396.05 904.41,-404.21 905.41,-412.28 923,-420.05 987.1,-448.34 1011.56,-430.53 1076,-458.05 1106.18,-470.93 1137.47,-491.21 1159.85,-507.12"/>
<polygon fill="black" stroke="black" points="1157.82,-509.97 1167.98,-512.98 1161.92,-504.29 1157.82,-509.97"/>
</g>
<!-- internal/analysis/project&#45;&gt;internal/model -->
<g id="edge24" class="edge">
<title>internal/analysis/project&#45;&gt;internal/model</title>
<path fill="none" stroke="black" d="M871.63,-369.89C928.54,-366.71 1010.45,-356.88 1076,-328.05 1111.68,-312.35 1145.73,-282.84 1167.49,-261.46"/>
<polygon fill="black" stroke="black" points="1170.07,-263.83 1174.66,-254.28 1165.12,-258.88 1170.07,-263.83"/>
</g>
<!-- internal/analysis/project&#45;&gt;internal/analysis/cppusage -->
<g id="edge21" class="edge">
<title>internal/analysis/project&#45;&gt;internal/analysis/cppusage</title>
<path fill="none" stroke="black" d="M871.65,-378.77C884.93,-380.27 899,-381.85 912.75,-383.4"/>
<polygon fill="black" stroke="black" points="912.36,-386.87 922.68,-384.51 913.14,-379.92 912.36,-386.87"/>
</g>
<!-- internal/analysis/project&#45;&gt;internal/analysis/resolver -->
<g id="edge23" class="edge">
<title>internal/analysis/project&#45;&gt;internal/analysis/resolver</title>
<path fill="none" stroke="black" d="M863.58,-389.17C871.87,-393.03 879.95,-397.62 887,-403.05 908.71,-419.73 901.6,-435.96 923,-453.05 927.07,-456.29 931.51,-459.27 936.15,-461.98"/>
<polygon fill="black" stroke="black" points="934.77,-465.21 945.24,-466.87 938.09,-459.05 934.77,-465.21"/>
</g>
<!-- internal/analysis/lang/cpp -->
<g id="node17" class="node">
<title>internal/analysis/lang/cpp</title>
<polygon fill="none" stroke="black" points="1073.5,-319.05 925.5,-319.05 925.5,-283.05 1073.5,-283.05 1073.5,-319.05"/>
<text text-anchor="middle" x="999.5" y="-298.55" font-family="Times,serif" font-size="10.00">internal/analysis/lang/cpp</text>
</g>
<!-- internal/analysis/project&#45;&gt;internal/analysis/lang/cpp -->
<g id="edge22" class="edge">
<title>internal/analysis/project&#45;&gt;internal/analysis/lang/cpp</title>
<path fill="none" stroke="black" d="M853.35,-353.02C879.36,-343.71 911.27,-332.28 938.55,-322.51"/>
<polygon fill="black" stroke="black" points="939.75,-325.8 947.99,-319.13 937.39,-319.21 939.75,-325.8"/>
</g>
<!-- internal/analysis/resolver&#45;&gt;internal/platform/pathmatch -->
<g id="edge27" class="edge">
<title>internal/analysis/resolver&#45;&gt;internal/platform/pathmatch</title>
<path fill="none" stroke="black" d="M1072.16,-502.31C1083.38,-505.01 1095.07,-507.82 1106.55,-510.59"/>
<polygon fill="black" stroke="black" points="1106.02,-514.06 1116.56,-513 1107.66,-507.25 1106.02,-514.06"/>
</g>
<!-- internal/analysis/resolver&#45;&gt;internal/model -->
<g id="edge26" class="edge">
<title>internal/analysis/resolver&#45;&gt;internal/model</title>
<path fill="none" stroke="black" d="M1025.3,-466.8C1040.91,-454.6 1060.89,-437.62 1076,-420.05 1119.46,-369.51 1157.95,-301.07 1177.63,-263.52"/>
<polygon fill="black" stroke="black" points="1180.95,-264.72 1182.44,-254.23 1174.74,-261.5 1180.95,-264.72"/>
</g>
<!-- internal/analysis/engine -->
<g id="node12" class="node">
<title>internal/analysis/engine</title>
<polygon fill="none" stroke="black" points="493,-435.05 354,-435.05 354,-399.05 493,-399.05 493,-435.05"/>
<text text-anchor="middle" x="423.5" y="-414.55" font-family="Times,serif" font-size="10.00">internal/analysis/engine</text>
</g>
<!-- internal/analysis/engine&#45;&gt;internal/analysis/compilecmds -->
<g id="edge10" class="edge">
<title>internal/analysis/engine&#45;&gt;internal/analysis/compilecmds</title>
<path fill="none" stroke="black" d="M440.43,-435.05C466.94,-464.84 518.27,-521.75 529,-528.05 589.07,-563.26 624.25,-525.69 681,-566.05 704.81,-582.98 694.24,-602.73 717,-621.05 721.26,-624.47 725.92,-627.56 730.79,-630.33"/>
<polygon fill="black" stroke="black" points="729.28,-633.49 739.77,-635 732.51,-627.28 729.28,-633.49"/>
</g>
<!-- internal/analysis/engine&#45;&gt;internal/model -->
<g id="edge16" class="edge">
<title>internal/analysis/engine&#45;&gt;internal/model</title>
<path fill="none" stroke="black" d="M445.99,-398.79C466.23,-382.4 498,-358.74 529,-344.05 592.44,-313.97 614.98,-324.92 681,-301.05 697.47,-295.09 700.3,-290.3 717,-285.05 790.41,-261.93 811.65,-267.73 887,-252.05 903.05,-248.71 906.74,-246.08 923,-244.05 996.47,-234.87 1082.08,-234 1136.52,-234.66"/>
<polygon fill="black" stroke="black" points="1136.59,-238.16 1146.64,-234.81 1136.7,-231.16 1136.59,-238.16"/>
</g>
<!-- internal/analysis/engine&#45;&gt;internal/analysis/discovery -->
<g id="edge11" class="edge">
<title>internal/analysis/engine&#45;&gt;internal/analysis/discovery</title>
<path fill="none" stroke="black" d="M493.13,-399.46C503.18,-396.88 513.6,-394.21 523.86,-391.58"/>
<polygon fill="black" stroke="black" points="524.81,-394.95 533.62,-389.08 523.07,-388.17 524.81,-394.95"/>
</g>
<!-- internal/analysis/engine&#45;&gt;internal/analysis/project -->
<g id="edge12" class="edge">
<title>internal/analysis/engine&#45;&gt;internal/analysis/project</title>
<path fill="none" stroke="black" d="M493.12,-414.71C544.95,-412.28 617.73,-407.45 681,-398.05 694.51,-396.04 708.76,-393.35 722.54,-390.44"/>
<polygon fill="black" stroke="black" points="723.44,-393.83 732.48,-388.29 721.96,-386.98 723.44,-393.83"/>
</g>
<!-- internal/analysis/engine&#45;&gt;internal/analysis/resolver -->
<g id="edge13" class="edge">
<title>internal/analysis/engine&#45;&gt;internal/analysis/resolver</title>
<path fill="none" stroke="black" d="M493.17,-425.18C599.32,-437.76 802.87,-461.87 916.56,-475.34"/>
<polygon fill="black" stroke="black" points="916.26,-478.83 926.6,-476.53 917.08,-471.88 916.26,-478.83"/>
</g>
<!-- internal/analysis/rules -->
<g id="node13" class="node">
<title>internal/analysis/rules</title>
<polygon fill="none" stroke="black" points="669.5,-519.05 540.5,-519.05 540.5,-483.05 669.5,-483.05 669.5,-519.05"/>
<text text-anchor="middle" x="605" y="-498.55" font-family="Times,serif" font-size="10.00">internal/analysis/rules</text>
</g>
<!-- internal/analysis/engine&#45;&gt;internal/analysis/rules -->
<g id="edge14" class="edge">
<title>internal/analysis/engine&#45;&gt;internal/analysis/rules</title>
<path fill="none" stroke="black" d="M459.56,-435.13C479.73,-445.38 505.63,-458.26 529,-469.05 536.14,-472.34 543.71,-475.71 551.19,-478.97"/>
<polygon fill="black" stroke="black" points="550.01,-482.28 560.58,-483.03 552.79,-475.85 550.01,-482.28"/>
</g>
<!-- internal/config -->
<g id="node14" class="node">
<title>internal/config</title>
<polygon fill="none" stroke="black" points="847.5,-243.05 756.5,-243.05 756.5,-207.05 847.5,-207.05 847.5,-243.05"/>
<text text-anchor="middle" x="802" y="-222.55" font-family="Times,serif" font-size="10.00">internal/config</text>
</g>
<!-- internal/analysis/engine&#45;&gt;internal/config -->
<g id="edge15" class="edge">
<title>internal/analysis/engine&#45;&gt;internal/config</title>
<path fill="none" stroke="black" d="M437.68,-399.02C455.76,-375.52 490.43,-334.65 529,-311.05 589.43,-274.06 613.45,-284.41 681,-263.05 702.4,-256.28 725.94,-248.83 746.46,-242.33"/>
<polygon fill="black" stroke="black" points="747.79,-245.58 756.27,-239.22 745.68,-238.9 747.79,-245.58"/>
</g>
<!-- internal/analysis/engine&#45;&gt;internal/platform/logx -->
<g id="edge17" class="edge">
<title>internal/analysis/engine&#45;&gt;internal/platform/logx</title>
<path fill="none" stroke="black" d="M442.63,-435.31C457.21,-450.53 477.72,-473.18 493,-495.05 512.14,-522.43 504.27,-538.58 529,-561.05 532.55,-564.27 536.47,-567.2 540.6,-569.85"/>
<polygon fill="black" stroke="black" points="538.92,-572.93 549.33,-574.93 542.44,-566.88 538.92,-572.93"/>
</g>
<!-- internal/analysis/rules&#45;&gt;internal/platform/pathmatch -->
<g id="edge30" class="edge">
<title>internal/analysis/rules&#45;&gt;internal/platform/pathmatch</title>
<path fill="none" stroke="black" d="M669.5,-516.72C673.57,-518.86 677.45,-521.29 681,-524.05 705.26,-542.89 690.21,-568.01 717,-583.05 786.57,-622.09 998,-599.79 1076,-583.05 1102.53,-577.35 1130.31,-565.07 1151.98,-553.87"/>
<polygon fill="black" stroke="black" points="1153.67,-556.93 1160.87,-549.16 1150.4,-550.75 1153.67,-556.93"/>
</g>
<!-- internal/analysis/rules&#45;&gt;internal/model -->
<g id="edge29" class="edge">
<title>internal/analysis/rules&#45;&gt;internal/model</title>
<path fill="none" stroke="black" d="M669.85,-511.3C782.62,-528 1011.28,-555.12 1076,-512.05 1161.11,-455.4 1183.62,-322.72 1189.48,-264.4"/>
<polygon fill="black" stroke="black" points="1193,-264.36 1190.42,-254.09 1186.03,-263.73 1193,-264.36"/>
</g>
<!-- internal/analysis/rules&#45;&gt;internal/config -->
<g id="edge28" class="edge">
<title>internal/analysis/rules&#45;&gt;internal/config</title>
<path fill="none" stroke="black" d="M619.51,-482.98C634.7,-462.54 660,-428.17 681,-398.05 697.49,-374.38 700.68,-367.83 717,-344.05 739.04,-311.92 764.98,-275.36 782.14,-251.34"/>
<polygon fill="black" stroke="black" points="785.07,-253.26 788.04,-243.09 779.38,-249.18 785.07,-253.26"/>
</g>
<!-- internal/analysis/graph -->
<g id="node16" class="node">
<title>internal/analysis/graph</title>
<polygon fill="none" stroke="black" points="672,-221.05 538,-221.05 538,-185.05 672,-185.05 672,-221.05"/>
<text text-anchor="middle" x="605" y="-200.55" font-family="Times,serif" font-size="10.00">internal/analysis/graph</text>
</g>
<!-- internal/analysis/graph&#45;&gt;internal/model -->
<g id="edge19" class="edge">
<title>internal/analysis/graph&#45;&gt;internal/model</title>
<path fill="none" stroke="black" d="M672.25,-196.75C763.69,-189.49 933.45,-181.15 1076,-203.05 1096.27,-206.16 1118.02,-211.75 1137.11,-217.46"/>
<polygon fill="black" stroke="black" points="1136.24,-220.85 1146.83,-220.44 1138.3,-214.16 1136.24,-220.85"/>
</g>
<!-- internal/analysis/graph&#45;&gt;internal/config -->
<g id="edge18" class="edge">
<title>internal/analysis/graph&#45;&gt;internal/config</title>
<path fill="none" stroke="black" d="M672.02,-210.49C696.18,-213.22 723.22,-216.27 746.29,-218.87"/>
<polygon fill="black" stroke="black" points="745.91,-222.35 756.24,-220 746.7,-215.4 745.91,-222.35"/>
</g>
<!-- internal/analysis/lang/cpp&#45;&gt;internal/model -->
<g id="edge20" class="edge">
<title>internal/analysis/lang/cpp&#45;&gt;internal/model</title>
<path fill="none" stroke="black" d="M1053.45,-283.03C1079.49,-274.16 1110.84,-263.5 1137.07,-254.57"/>
<polygon fill="black" stroke="black" points="1138.52,-257.77 1146.86,-251.24 1136.26,-251.15 1138.52,-257.77"/>
</g>
<!-- internal/app&#45;&gt;internal/analysis/contracts -->
<g id="edge31" class="edge">
<title>internal/app&#45;&gt;internal/analysis/contracts</title>
<path fill="none" stroke="black" d="M318.05,-218.22C329.58,-214.8 342.27,-211.16 354,-208.05 409.04,-193.44 471.38,-178.72 520.04,-167.64"/>
<polygon fill="black" stroke="black" points="520.92,-171.03 529.89,-165.4 519.37,-164.2 520.92,-171.03"/>
</g>
<!-- internal/app&#45;&gt;internal/model -->
<g id="edge37" class="edge">
<title>internal/app&#45;&gt;internal/model</title>
<path fill="none" stroke="black" d="M281.37,-212C286.18,-175.46 302.47,-92.74 354,-52.05 442.36,17.74 491.4,-11.05 604,-11.05 604,-11.05 604,-11.05 803,-11.05 924.97,-11.05 973.4,26.91 1076,-39.05 1137.75,-78.74 1170.6,-164.07 1184.05,-208.26"/>
<polygon fill="black" stroke="black" points="1180.74,-209.43 1186.91,-218.05 1187.46,-207.46 1180.74,-209.43"/>
</g>
<!-- internal/app&#45;&gt;internal/analysis/depdiff -->
<g id="edge32" class="edge">
<title>internal/app&#45;&gt;internal/analysis/depdiff</title>
<path fill="none" stroke="black" d="M284.41,-211.96C293.22,-183.24 314.57,-127.63 354,-100.05 403.56,-65.38 471.9,-55.53 524.61,-53.85"/>
<polygon fill="black" stroke="black" points="525.01,-57.34 534.93,-53.62 524.85,-50.35 525.01,-57.34"/>
</g>
<!-- internal/app&#45;&gt;internal/analysis/discovery -->
<g id="edge33" class="edge">
<title>internal/app&#45;&gt;internal/analysis/discovery</title>
<path fill="none" stroke="black" d="M318.14,-247.24C329.67,-252.35 342.34,-257.94 354,-263.05 422.57,-293.04 501.93,-327.24 552.51,-348.97"/>
<polygon fill="black" stroke="black" points="551.36,-352.28 561.93,-353.01 554.12,-345.85 551.36,-352.28"/>
</g>
<!-- internal/app&#45;&gt;internal/analysis/engine -->
<g id="edge34" class="edge">
<title>internal/app&#45;&gt;internal/analysis/engine</title>
<path fill="none" stroke="black" d="M290.25,-248.29C304.01,-271.16 329.07,-311.24 354,-343.05 367.3,-360.02 383.67,-377.79 397.06,-391.66"/>
<polygon fill="black" stroke="black" points="394.67,-394.23 404.16,-398.94 399.68,-389.34 394.67,-394.23"/>
</g>
<!-- internal/app&#45;&gt;internal/config -->
<g id="edge36" class="edge">
<title>internal/app&#45;&gt;internal/config</title>
<path fill="none" stroke="black" d="M318.27,-230.65C389.91,-231.63 547.9,-233.17 681,-230.05 702.31,-229.55 725.74,-228.65 746.19,-227.75"/>
<polygon fill="black" stroke="black" points="746.45,-231.24 756.28,-227.3 746.13,-224.25 746.45,-231.24"/>
</g>
<!-- internal/app&#45;&gt;internal/platform/logx -->
<g id="edge38" class="edge">
<title>internal/app&#45;&gt;internal/platform/logx</title>
<path fill="none" stroke="black" d="M281.86,-248.23C287.75,-287.63 306.23,-382.27 354,-444.05 402.21,-506.39 484.48,-548.08 541.41,-571.13"/>
<polygon fill="black" stroke="black" points="540.44,-574.51 551.02,-574.95 543.02,-568.01 540.44,-574.51"/>
</g>
<!-- internal/app&#45;&gt;internal/analysis/graph -->
<g id="edge35" class="edge">
<title>internal/app&#45;&gt;internal/analysis/graph</title>
<path fill="none" stroke="black" d="M318.32,-226.82C369.82,-222.53 461.86,-214.87 527.55,-209.41"/>
<polygon fill="black" stroke="black" points="528.19,-212.87 537.86,-208.55 527.61,-205.89 528.19,-212.87"/>
</g>
<!-- internal/output/report&#45;&gt;internal/analysis/contracts -->
<g id="edge42" class="edge">
<title>internal/output/report&#45;&gt;internal/analysis/contracts</title>
<path fill="none" stroke="black" d="M487.53,-134.77C497.97,-136.05 508.95,-137.4 519.81,-138.73"/>
<polygon fill="black" stroke="black" points="519.38,-142.2 529.74,-139.94 520.24,-135.25 519.38,-142.2"/>
</g>
<!-- internal/output/report&#45;&gt;internal/model -->
<g id="edge45" class="edge">
<title>internal/output/report&#45;&gt;internal/model</title>
<path fill="none" stroke="black" d="M487.95,-117.76C607.28,-102.89 871.49,-82.36 1076,-156.05 1109.52,-168.12 1142.39,-192.46 1164.44,-211.14"/>
<polygon fill="black" stroke="black" points="1162.2,-213.83 1172.05,-217.73 1166.78,-208.54 1162.2,-213.83"/>
</g>
<!-- internal/output/report&#45;&gt;internal/analysis/depdiff -->
<g id="edge43" class="edge">
<title>internal/output/report&#45;&gt;internal/analysis/depdiff</title>
<path fill="none" stroke="black" d="M470.73,-109.02C494.4,-99.79 523.4,-88.48 548.3,-78.77"/>
<polygon fill="black" stroke="black" points="549.57,-82.03 557.62,-75.13 547.03,-75.51 549.57,-82.03"/>
</g>
<!-- internal/output/report&#45;&gt;internal/analysis/graph -->
<g id="edge44" class="edge">
<title>internal/output/report&#45;&gt;internal/analysis/graph</title>
<path fill="none" stroke="black" d="M460.88,-145.12C480.8,-154.76 506.04,-166.55 529,-176.05 533.33,-177.83 537.82,-179.62 542.36,-181.38"/>
<polygon fill="black" stroke="black" points="541.12,-184.65 551.71,-184.93 543.61,-178.11 541.12,-184.65"/>
</g>
</g>
</svg>
